# xmcd CD database file
#
# Track frame offsets:
#	150
#	13864
#	39513
#	152012
#	167537
#	193111
#
# Disc length: 3681 seconds
#
# Revision: 0
# Processed by: cddbd v1.5.2PL0 Copyright (c) Steve Scherf et al.
# Submitted via: CDex 1.51
#
DISCID=420e5f06
DTITLE=Dr. Frank Kinslow - Quantenheilung Alltag 2 CD1
DYEAR=2010
DGENRE=New Age
TTITLE0=Vorwort
TTITLE1=Einführung
TTITLE2=Quantenheilung lernen
TTITLE3=Das EU-Gefühl
TTITLE4=Wann Sie Quantenheilung anwenden können
TTITLE5=Aus der universellen Liebe heraus kommunizieren
EXTD=YEAR: 2010
EXTT0=
EXTT1=
EXTT2=
EXTT3=
EXTT4=
EXTT5=
PLAYORDER=
